<?xml version="1.0" encoding="UTF-8"?>
<svg id="_图层_1" data-name="图层 1" xmlns="http://www.w3.org/2000/svg" version="1.1" viewBox="0 0 539.3 539.3">
  <defs>
    <style>
      .cls-1 {
        fill: #000;
      }

      .cls-1, .cls-2 {
        stroke-width: 0px;
      }

      .cls-2 {
        fill: #fff;
      }
    </style>
  </defs>
  <rect class="cls-2" x="0" y="0" width="539.3" height="539.3" rx="269.6" ry="269.6"/>
  <path class="cls-1" d="M359.1,418.6s-9.1,12.6-14.8,18.1c-7.2,6.8-15.2,12.3-24.2,16.7-12.1,5.8-25,9.1-38.6,10-9,.6-17.8,0-26.7-1.8-20.4-4.2-38.1-13.4-52.4-28.6-16.3-17.6-24.5-38.2-23.6-62.4.5-12.6,3.9-24.7,10-35.8.4-.9.9-1.6,1.4-2.5,23.6,22.4,51.5,33.3,83.8,31.5,32.4-1.9,58.8-16.1,79.8-41,1.9,2.7,14.7,18,14.7,18l21.9-16.6s-11-15.2-13.3-18.3c-2.4-3.2-5.1-6.2-7.7-9.4.2-.5.4-1,.6-1.5,5.2-13.1,8-26.7,8-40.9V46.7h-16.2l-92.3,92.3c-.6.6-1.1,1.1-2,1.9-.5-.6-.9-1.4-1.5-1.9-31.9-32-90.9-90.9-90.9-90.9h-17.6s0,203.7,0,203.7c0,3,.1,6.2.4,9.4.4,8.5,2,16.8,4.4,24.9,2.4,7.6,5.6,14.8,9.4,21.9-.2.4-.4.6-.6.9-15.4,22.1-22.6,46.5-20.9,73.5.5,7,1.5,13.8,3.4,20.5,5.6,21,16.2,38.8,31.7,53.9,10,9.7,21.5,17.6,34.1,23.5,15.4,7.2,31.6,11,48.6,12.1,5.7.4,11.4.1,17.1-.2,7.3-.6,14.5-1.6,21.6-3.4,23.9-5.9,44.5-17.6,61.6-35.3,5.8-5.9,15.3-19.6,15.3-19.6l-24.5-15.2h0ZM198.3,320.9c.9-1.1,1.9-2.3,2.9-3.4,14.3-15.6,32-25.4,52.7-29.7,7.6-1.6,15.3-2.4,23.1-2.3,14.7.4,28.7,3.4,42,9.7,8.9,4.3,25.6,17.2,25.6,17.2-37.7,48.8-107.6,49.7-146.3,8.5h0ZM201.9,183c34.8-32.4,87.1-34.5,124.1-6.4,38.8,29.5,45.4,77,32.8,109.9-26.6-21.6-57-31.5-90.9-29.6-33.9,1.9-62.8,15.2-86.6,39.6-17.1-32.9-14-80.9,20.7-113.4h0Z"/>
</svg>