<svg xmlns="http://www.w3.org/2000/svg" viewBox="0 0 240.56 445.86">
  <path d="m209.19,371.94s-9.11,12.65-14.8,18.08c-7.21,6.83-15.18,12.27-24.16,16.69-12.14,5.82-25.04,9.11-38.57,9.99-8.98.63-17.83,0-26.68-1.77-20.36-4.17-38.07-13.41-52.36-28.58-16.31-17.58-24.53-38.19-23.65-62.35.51-12.65,3.92-24.66,9.99-35.79.38-.89.89-1.64,1.39-2.53,23.65,22.39,51.47,33.26,83.85,31.49,32.38-1.9,58.81-16.06,79.8-40.98,1.9,2.66,14.7,17.98,14.7,17.98l21.86-16.65s-11.01-15.24-13.29-18.28c-2.4-3.16-5.06-6.2-7.71-9.36.25-.51.38-1.01.63-1.52,5.18-13.15,7.97-26.68,7.97-40.85V0h-16.19s-92.32,92.32-92.32,92.32c-.63.63-1.14,1.14-2.02,1.9-.51-.63-.89-1.39-1.52-1.9C84.24,60.33,25.22,1.44,25.22,1.44l-17.62-.05v203.74c0,3.04.13,6.2.38,9.36.38,8.47,2.02,16.82,4.43,24.91,2.4,7.59,5.56,14.8,9.36,21.88-.25.38-.38.63-.63.89C5.7,284.3-1.51,308.71.26,335.65c.51,6.96,1.52,13.79,3.41,20.49,5.56,20.99,16.19,38.83,31.74,53.88,9.99,9.74,21.5,17.58,34.15,23.52,15.43,7.21,31.62,11,48.56,12.14,5.69.38,11.38.13,17.07-.25,7.34-.63,14.54-1.64,21.63-3.41,23.9-5.94,44.52-17.58,61.59-35.28,5.82-5.94,15.3-19.6,15.3-19.6l-24.53-15.18Zm-160.74-97.76c.89-1.14,1.9-2.28,2.91-3.41,14.29-15.56,32-25.42,52.74-29.72,7.59-1.64,15.3-2.4,23.14-2.28,14.67.38,28.71,3.41,41.99,9.74,8.85,4.3,25.55,17.2,25.55,17.2-37.69,48.82-107.62,49.7-146.32,8.47Zm3.54-137.85c34.78-32.38,87.14-34.53,124.06-6.45,38.83,29.47,45.4,77.02,32.75,109.9-26.56-21.63-57.04-31.49-90.93-29.59-33.89,1.9-62.85,15.18-86.63,39.58-17.07-32.88-14.04-80.94,20.74-113.44Z"/>
</svg>