<svg xmlns="http://www.w3.org/2000/svg" width="16" height="16" viewBox="0 0 16 16">
      <path fill="currentColor" d="M10.2,12h-4.5c-.4,0-.8.3-.8.8s.3.8.8.8h4.5c.4,0,.8-.3.8-.8s-.3-.8-.8-.8ZM9.2,14.5h-2.5c-.4,0-.8.3-.8.8s.3.8.8.8h2.5c.4,0,.8-.3.8-.8s-.3-.8-.8-.8Z"/>
      <path fill="currentColor" d="M13.5,5.3c0,1.5-.7,2.5-1.3,3.3,0,.1-.2.2-.3.3-.2.2-.4.5-.5.7-.2.3-.3.6-.4.8,0,0,0,0,0,.1,0,0,0,0,0,0,0,0,0,0,0,.1,0,0,0,.1-.1.2,0,0,0,0-.1,0,0,0-.2,0-.2,0,0,0,0,0-.1,0h-4.5c0,0-.2,0-.2,0,0,0,0,0,0,0,0,0,0,0-.1,0,0,0-.2-.1-.2-.2,0,0,0,0,0-.1,0,0,0,0,0,0,0,0,0,0,0-.1,0-.3-.2-.5-.4-.8-.2-.2-.4-.5-.5-.7,0-.1-.2-.2-.3-.3-.6-.8-1.3-1.7-1.3-3.3C2.5,2.3,4.9,0,8,0s5.5,2.3,5.5,5.2Z"/>
</svg>